<?xml version="1.0" encoding="UTF-8" standalone="no"?>
<!DOCTYPE svg PUBLIC "-//W3C//DTD SVG 1.1//EN"
 "http://www.w3.org/Graphics/SVG/1.1/DTD/svg11.dtd">
<!-- Generated by graphviz version 2.38.0 (20140413.2041)
 -->
<!-- Title: G Pages: 1 -->
<svg width="117pt" height="366pt"
 viewBox="0.00 0.00 117.00 366.00" xmlns="http://www.w3.org/2000/svg" xmlns:xlink="http://www.w3.org/1999/xlink">
<g id="graph0" class="graph" transform="scale(1 1) rotate(0) translate(4 362)">
<title>G</title>
<polygon fill="white" stroke="none" points="-4,4 -4,-362 113,-362 113,4 -4,4"/>
<g id="clust1" class="cluster"><title>cluster_Global</title>
<path fill="none" stroke="gray" d="M20,-8C20,-8 89,-8 89,-8 95,-8 101,-14 101,-20 101,-20 101,-338 101,-338 101,-344 95,-350 89,-350 89,-350 20,-350 20,-350 14,-350 8,-344 8,-338 8,-338 8,-20 8,-20 8,-14 14,-8 20,-8"/>
<text text-anchor="middle" x="54.5" y="-337.2" font-family="Times,serif" font-size="11.00" fill="gray">Global</text>
</g>
<!-- \\Encryptor -->
<g id="node1" class="node"><title>\\Encryptor</title>
<polygon fill="none" stroke="black" points="93,-322 16,-322 16,-286 93,-286 93,-322"/>
<text text-anchor="middle" x="54.5" y="-301.2" font-family="Courier,monospace" font-size="11.00">Encryptor</text>
</g>
<!-- \\XML -->
<g id="node2" class="node"><title>\\XML</title>
<polygon fill="none" stroke="black" points="81.5,-268 27.5,-268 27.5,-232 81.5,-232 81.5,-268"/>
<text text-anchor="middle" x="54.5" y="-247.2" font-family="Courier,monospace" font-size="11.00">XML</text>
</g>
<!-- \\Hash -->
<g id="node3" class="node"><title>\\Hash</title>
<polygon fill="none" stroke="black" points="81.5,-214 27.5,-214 27.5,-178 81.5,-178 81.5,-214"/>
<text text-anchor="middle" x="54.5" y="-193.2" font-family="Courier,monospace" font-size="11.00">Hash</text>
</g>
<!-- \\DB -->
<g id="node4" class="node"><title>\\DB</title>
<polygon fill="none" stroke="black" points="81.5,-160 27.5,-160 27.5,-124 81.5,-124 81.5,-160"/>
<text text-anchor="middle" x="54.5" y="-139.2" font-family="Courier,monospace" font-size="11.00">DB</text>
</g>
<!-- \\User -->
<g id="node5" class="node"><title>\\User</title>
<polygon fill="none" stroke="black" points="81.5,-106 27.5,-106 27.5,-70 81.5,-70 81.5,-106"/>
<text text-anchor="middle" x="54.5" y="-85.2" font-family="Courier,monospace" font-size="11.00">User</text>
</g>
<!-- \\Config -->
<g id="node6" class="node"><title>\\Config</title>
<polygon fill="none" stroke="black" points="83,-52 26,-52 26,-16 83,-16 83,-52"/>
<text text-anchor="middle" x="54.5" y="-31.2" font-family="Courier,monospace" font-size="11.00">Config</text>
</g>
</g>
</svg>
